<svg version="1.1" xmlns="http://www.w3.org/2000/svg" xmlns:xlink="http://www.w3.org/1999/xlink" width="482.80171" height="360.83928" viewBox="0,0,482.80171,360.83928"><g transform="translate(1.40084,0.38798)"><g data-paper-data="{&quot;isPaintingLayer&quot;:true}" fill-rule="nonzero" stroke="none" stroke-width="0" stroke-linecap="butt" stroke-linejoin="miter" stroke-miterlimit="10" stroke-dasharray="" stroke-dashoffset="0" style="mix-blend-mode: normal"><path d="M-0.45208,358.72429c0,0 0,-173.36912 0,-239.43988c0,-46.66032 0,-119.41897 0,-119.41897h480.48048v358.85885z" fill="#d1baff"/><path d="M480.7567,110.80945c-12.98428,3.31087 -26.33515,6.30022 -39.82004,8.90313c-8.19394,1.58163 1.39158,90.16326 -7.25985,91.56575c-14.14685,2.29335 -1.85207,-90.25408 -17.08387,-88.47492c-6.14153,0.71737 -30.13446,2.50924 -33.057,2.74328c-4.3885,0.35144 -1.39024,23.20941 -5.98762,23.52855c-2.88445,0.20023 -2.80057,-22.12848 -5.74634,-21.94115c-31.76861,2.0202 -72.64096,3.2856 -100.4997,3.70392c-3.4984,0.05253 -2.50527,22.61423 -6.02894,22.63986c-3.31419,0.02411 -3.63626,-22.48629 -6.97166,-22.48629c-29.62065,0 -67.43596,0.54481 -95.03991,-1.26211c-4.81949,-0.31547 -3.59631,54.89869 -8.34043,54.53194c-4.60518,-0.35601 -1.66638,-54.78996 -6.19671,-55.19322c-0.53234,-0.04738 12.26192,2.76785 -0.97873,-0.22231c-2.93679,-0.66322 -1.61573,24.13509 -5.01659,23.34759c-2.81099,-0.6509 -2.76753,-22.36401 -5.85907,-23.09518c-22.08128,-5.22234 -78.45518,-9.84436 -120.30669,-17.75825c-5.10116,-0.9646 -1.20063,19.06523 -6.28241,18.04582c-3.29044,-0.66007 -3.84507,-19.17139 -5.3503,-19.49479c-2.1067,-0.45262 -1.2301,-0.96488 -3.3625,-1.52652c-2.80234,-0.7381 -2.42746,-2.70292 -2.26214,-7.95167c0.20772,-6.59481 0.6633,-17.21654 0.61601,-24.01153c-0.18754,-26.94481 0.12122,-60.04441 0.12122,-70.78515c0,-9.03363 41.06768,-0.76569 99.27481,-3.28695c72.11872,-3.12383 170.54866,-0.466 249.77779,-1.02747c39.74818,-0.28168 74.66372,0.46892 98.99987,0.18788c12.16175,-0.14044 21.68141,-2.78931 27.84174,-1.45535c6.88074,1.48996 3.92201,18.51989 4.49736,35.90495c0.40753,12.31408 0.4537,24.13966 0.64469,31.41387c0.06209,2.36495 -0.2365,22.54332 -0.58981,34.33271c-0.12966,4.32655 0.88707,8.96547 0.26685,9.12363z" fill="#ba97ff"/><path d="M-0.45208,56.9225l1.5015,-57.05705l477.47748,3.003c0,0 2.54653,42.2888 2.23848,54.15118c-0.07551,2.90796 -0.62689,40.34241 0.28617,48.00791c0.9276,7.78753 -24.37827,-1.18363 -33.52473,-2.4362c-6.72965,-0.9216 -4.80982,34.08318 -12.17264,32.96673c-4.77241,-0.72366 -3.65377,-34.51615 -8.6327,-35.30474c-5.15007,-0.8157 -15.62117,-3.30778 -22.00608,-4.39142c-4.31041,-0.73156 -2.80545,75.07106 -7.37463,74.27986c-4.91443,-0.85098 -6.90467,-73.79397 -11.82428,-74.65348c-7.562,-1.32117 -19.45452,-5.61843 -26.11492,-6.77198c-4.38703,-0.75982 -4.28184,25.50284 -8.67232,24.73901c-5.69052,-0.98999 -3.85869,-26.0031 -9.47356,-26.98019c-17.63233,-3.06833 -39.16944,-7.5198 -54.17842,-10.00794c-21.82434,-3.61797 -103.12956,-12.46243 -161.38318,-16.81032c-4.04857,-0.30217 -5.06983,26.4299 -9.05417,26.1434c-3.52089,-0.25317 -5.0076,-28.02526 -8.45538,-28.26436c-4.83869,-0.33556 -5.97235,62.09863 -9.40539,61.87963c-7.32589,-0.46731 -3.86544,-63.96905 -10.52856,-64.37333c-21.03198,-1.27609 -45.71643,2.29502 -55.54473,1.88551c-6.67063,-0.27795 -3.70506,27.99878 -9.04023,27.77648c-6.71268,-0.2797 -6.29813,-26.03819 -10.60679,-26.21772c-19.79878,-0.82495 -13.51091,-1.56395 -13.51091,-1.56395z" fill="#6543a9"/><path d="M2.10221,358.66547c-3.71448,-1.03127 -0.8999,-2.17264 -1.40613,-6.09534c-1.36216,-10.55514 -0.16003,-31.87809 -0.76336,-54.50188c-0.95333,-35.74771 -1.76849,-85.92002 -0.81589,-85.66864c9.46694,2.49827 14.61,5.31132 24.01356,8.18319c3.02116,0.92267 8.46086,-29.50731 13.13751,-28.29879c6.72339,1.73743 7.64852,35.22747 16.2651,37.19336c27.98175,6.3841 61.19302,12.84604 68.76301,12.06728c37.39763,-3.84721 77.71172,-5.94348 119.73602,-5.94348c29.75383,0 213.71882,7.54469 240.03409,13.37007c0.60433,0.13378 0.38139,28.70671 -0.59597,56.54172c-0.60982,17.36763 2.76514,34.7524 -7.27311,43.8277c-20.86989,18.86789 -49.88147,5.57573 -99.41195,8.21885c-7.0967,0.37871 -38.4537,-4.76734 -46.00638,-3.24049c-34.62115,6.99902 -79.41889,2.6208 -122.13977,3.38717c-112.16542,2.01215 -191.67609,4.25218 -203.53672,0.95926z" fill="#ba97ff"/><path d="M-0.45209,360.22581v-81.08108c0,0 120.49499,41.57508 223.52663,35.62574c12.61824,-0.72861 28.65679,-2.59792 46.7946,-5.24671c5.21292,-0.76128 10.59925,-36.12148 16.12761,-37.00296c4.92231,-0.78485 9.95722,32.92059 15.08261,32.05331c40.86648,-6.91517 178.94903,-31.43538 178.94903,-31.43538v85.58559z" fill="#6543a9"/><path d="M-0.24023,360.32469v-61.56156h480.48048v61.56156z" fill="#9966ff"/><path d="M58.67072,350.51094c65.45244,-1.88043 155.91675,-27.14643 180.00367,-28.13837c57.82376,-2.38127 139.1868,25.92917 185.1644,28.12935c57.87894,2.7697 55.71531,-20.05061 55.71531,-20.05061v30h-479v-30c0,0 2.01291,21.67147 58.11663,20.05963z" data-paper-data="{&quot;index&quot;:null}" fill="#8a5ce6"/><path d="M-0.24023,61.17358v-61.56156h480.48048v61.56156c0,0 -384.96219,0 -448.19066,0c-16.97126,0 -32.28981,0 -32.28981,0z" fill="#9966ff"/><path d="M0.04958,30.37368v-30h480v30c0,0 0.16363,-22.82031 -57.7153,-20.05061c-45.9776,2.20018 -127.34064,30.51063 -185.1644,28.12936c-24.08692,-0.99194 -114.55123,-26.25794 -180.00367,-28.13837c-56.10373,-1.61184 -57.11663,20.05962 -57.11663,20.05962z" fill="#8a5ce6"/></g></g></svg>