<svg version="1.1" xmlns="http://www.w3.org/2000/svg" xmlns:xlink="http://www.w3.org/1999/xlink" width="219.88615" height="268.02298" viewBox="0,0,219.88615,268.02298"><g transform="translate(-129.72531,-45.87075)"><g data-paper-data="{&quot;isPaintingLayer&quot;:true}" fill-rule="nonzero" stroke-linejoin="miter" stroke-miterlimit="10" stroke-dasharray="" stroke-dashoffset="0" style="mix-blend-mode: normal"><path d="M150.43569,272.82356c0,0 -15.17392,-50.10353 -16.09826,-73.90528c-1.05765,-27.2344 10.09826,-80.59472 10.09826,-80.59472h185.5c0,0 3.91175,1.46495 7.63245,10.67429c4.46165,11.04332 7.86755,31.03292 7.86755,43.55351c0,13.64517 1.30169,47.88395 -6.566,73.58048c-9.48098,30.96565 -27.434,52.69172 -27.434,52.69172c0,0 -54.18464,13.63193 -81.96403,11.15899c-24.51386,-2.18225 -50.64044,-7.9917 -62.60294,-12.93384c-1.88403,-0.77836 -16.43303,-24.22515 -16.43303,-24.22515z" fill="#f48c34" stroke="none" stroke-width="0" stroke-linecap="butt"/><path d="M154.33775,126.4365c0,0 -1.50188,-27.62836 3.20048,-45.01828c4.02408,-14.88153 13.7962,-19.72229 19.50553,-21.69869c14.83843,-5.13663 52.56637,-6.78303 65.39193,-6.78303c12.5419,0 39.0406,1.95509 55.11984,6.80434c7.67792,2.31554 20.31463,7.05423 27.04767,16.744c6.77763,9.75394 7.62631,24.45166 7.62631,24.45166c0,0 -71.35222,-4.12034 -111.03823,34.76943c-0.6421,0.62921 -2.75482,8.18441 -8.01194,23.01306c-4.43264,12.50305 -6.40153,32.18877 -4.51507,46.06939c1.71308,12.60484 3.81777,24.4428 8.28805,34.5544c8.3365,18.85683 46.94443,70.20983 44.68397,70.83631c-12.37679,3.43021 -35.32167,-0.10618 -38.12329,0.29542c-0.87095,0.12485 -39.66567,-60.98352 -47.46914,-82.00241c-7.60121,-20.47412 -8.23633,-44.73543 -7.58993,-54.69782c0.91029,-14.02956 6.80113,-28.07821 6.62906,-30.23084c-0.22207,-2.77829 17.28663,0.99228 14.99042,1.78884c-1.90778,0.66181 -22.68089,-1.81328 -22.90598,-1.87221c-6.15539,-1.61143 -12.82967,-17.02356 -12.82967,-17.02356z" fill="#ffc25f" stroke="none" stroke-width="0" stroke-linecap="butt"/><path d="M143.33775,142.93651c0,0 -3.44069,-11.73317 -3.47366,-12.07671c-0.38792,-4.0413 2.25446,-9.9804 4.4394,-14.75433c0.55543,-1.21357 5.0926,-7.38345 5.18353,-7.94832c0.34071,-2.11661 -2.84154,-3.71617 -2.50246,-5.24002c0.41301,-1.8561 -2.12669,-3.52362 -2.46492,-5.04789c-1.61294,-7.26908 -2.51478,-13.78045 -0.98142,-19.451c4.02408,-14.88153 22.7962,-17.72229 28.50553,-19.69869c14.83843,-5.13663 57.06637,-7.78303 69.89193,-7.78303c6.28659,0 31.8643,1.10257 53.17109,4.91896c10.05267,1.8006 31.43024,2.92865 39.03859,14.13381c1.35307,1.99272 5.15366,9.0167 6.23459,16.25503c1.11207,7.44688 -0.59605,15.12065 -6.57327,17.77596c-6.07966,2.70081 19.42381,39.365 6.92118,48.59153c-1.01766,0.751 -1.77096,3.64936 -5.27669,7.84408c-4.1071,4.91428 -15.2469,6.04907 -19.83845,4.21223c-3.1307,-1.25243 -8.45894,-5.78258 -10.05902,-11.04032c-1.84283,-6.05542 0.11697,-13.07596 -2.76174,-17.16582c-5.52773,-7.85338 -15.65263,-3.40811 -16.9657,-0.62448c-1.93565,4.10345 -1.22287,8.89354 -0.26023,14.22918c0.93607,5.18832 2.10841,10.89249 1.31171,16.98279c-0.80735,6.17177 2.74367,16.99648 0.91562,22.88779c-4.36284,14.06018 -15.88487,18.15185 -20.99722,19.30485c-0.47298,0.10667 -6.76925,-1.38645 -9.98146,-3.87243c-4.85447,-3.75696 -7.1589,-9.13955 -7.32987,-9.60128c-0.83039,-2.24245 -1.44651,-10.9367 0.10791,-20.80551c1.86487,-11.83977 5.97522,-25.37009 4.80202,-31.47835c-2.48952,-12.96158 -5.92318,-17.78314 -8.0241,-18.00346c-8.2326,-0.86334 -9.96756,-0.18617 -14.88874,3.02263c-2.83077,1.84578 -0.94372,6.90244 -3.29062,9.20226c-0.27111,0.26567 0.60048,2.40123 -1.1452,5.12123c-0.40127,0.62523 -1.88799,1.28134 -2.48154,1.95272c-0.64511,0.72969 -6.89671,6.45546 -12.72221,5.80408c-3.6378,-0.40676 -9.23877,-2.53588 -12.5899,-5.63689c-0.84741,-0.78416 -4.21082,-6.50259 -5.10295,-7.07845c-7.31533,-4.722 -4.35592,-17.56826 -10.75566,-18.00217c-7.3148,-0.49595 6.58879,31.14607 4.35391,31.42329c-1.34047,0.16628 -6.09472,-0.60979 -10.86679,-1.42047c-5.50898,-0.93587 -11.04173,-1.91784 -11.3736,-1.54941c-1.65909,1.84187 -10.66957,2.11664 -10.66957,2.11664z" fill="#ffc25f" stroke="none" stroke-width="0" stroke-linecap="butt"/><path d="M146.72502,104.80811c0,0 -6.21337,-11.775 -4.47858,-22.01183c1.73996,-10.2673 11.43806,-19.00165 18.16858,-22.4683c13.77398,-7.09449 36.08124,-9.31921 42.85654,-9.97998c14.01932,-1.36724 28.25678,-1.63156 40.15242,-1.4775c13.38568,0.17336 23.80611,0.87648 27.61385,1.13405c11.19608,0.75733 38.95192,4.80658 52.48723,10.39313c6.70815,2.76871 17.46316,13.70201 18.78822,23.55222c1.51628,11.27168 -6.92541,21.42384 -6.92541,21.42384" fill="none" stroke="#000000" stroke-width="6" stroke-linecap="round"/><path d="M146.61237,110.16493c0,0 -1.40658,-1.75715 -2.63253,-4.09043c-0.76907,-1.46371 -1.46706,-3.54905 -1.70212,-4.34068c-0.68395,-2.30336 2.70683,1.78544 2.70683,1.78544c0,0 8.09269,-4.13665 12.20055,-5.62051c6.1099,-2.20705 16.69687,-3.84703 25.9725,-5.00418c21.05882,-2.62711 44.87813,-0.44456 44.87813,-0.44456l0.14591,2.07681c0,0 -46.33908,3.60899 -60.55196,6.33383c-12.83641,2.46094 -21.0173,9.30428 -21.0173,9.30428z" fill="#000000" stroke="#000000" stroke-width="0" stroke-linecap="butt"/><path d="M295.21025,98.87756v-2.27896c0,0 11.4983,0.17572 18.54725,1.05684c1.94892,0.24362 10.05454,1.03087 16.29688,3.18308c2.921,1.00709 11.01824,1.77688 9.22643,3.08564c-0.37513,0.274 -1.24014,7.42262 -3.60685,7.99761c-2.70547,0.65729 -6.97382,-5.27818 -7.82129,-5.41954c-5.21185,-0.86935 -10.83909,-3.62176 -12.31685,-3.97688c-7.15142,-1.71856 -20.32557,-3.64779 -20.32557,-3.64779z" fill="#000000" stroke="#000000" stroke-width="0" stroke-linecap="butt"/><path d="M333.30148,106.04001c0,0 2.50873,5.43895 4.93189,10.82698c0.99962,2.22271 3.1827,11.78894 3.95799,15.38187c1.73518,8.04128 3.59296,26.27318 4.4201,41.20003c0.51211,9.24193 0.92954,21.16732 0.45605,31.06452c-0.29679,6.20371 -4.97519,41.73083 -11.60916,58.97575c-1.3705,3.56257 -5.90928,10.40987 -10.06027,17.18634c-3.01722,4.92561 -8.98703,13.24146 -14.38735,17.39765c-4.62179,3.55702 -21.2342,8.40523 -39.28684,10.90445c-7.68452,1.06385 -15.71967,1.63033 -22.66666,1.91871c-7.34473,0.30489 -13.47313,0.2989 -16.68487,0.24115c-9.74831,-0.17527 -43.84121,-1.39358 -63.34948,-14.3851c-0.94588,-0.62991 -8.97438,-9.05902 -15.99819,-20.15196c-0.91546,-1.44581 -7.44533,-14.28328 -11.33027,-27.07565c-2.80652,-9.24136 -4.49937,-18.49251 -5.34384,-23.86406c-0.21698,-1.38022 -4.20944,-26.92648 -3.55231,-47.65973c0.13249,-4.1803 -0.34845,-17.3204 5.37784,-36.05929c0.96394,-3.15443 -1.86376,-12.85877 1.35857,-20.47644c4.55828,-10.77589 15.35663,-19.65758 15.35663,-19.65758" fill="none" stroke="#000000" stroke-width="6" stroke-linecap="round"/><path d="M345.00451,215.70043c0,0 -22.27683,5.81599 -47.94152,9.58718c-4.28493,0.62963 -39.56831,3.93171 -72.72583,3.6634c-27.00082,-0.21849 -52.59194,-3.78029 -58.8866,-5.13578c-13.42137,-2.89016 -30.41411,-8.59753 -30.41411,-8.59753" fill="none" stroke="#000000" stroke-width="6" stroke-linecap="round"/><path d="M336.7982,258.66292c0,0 -20.70666,4.91179 -41.02551,8.72165c-4.34639,0.81496 -35.8946,3.81154 -65.19083,3.22981c-10.07049,-0.19997 -31.70393,0.27248 -48.80823,-2.31851c-16.33059,-2.47378 -36.39645,-9.38699 -36.60541,-9.39171" fill="none" stroke="#000000" stroke-width="6" stroke-linecap="round"/><path d="M342.59092,134.36861c0,0 -1.45679,15.10122 -6.07263,21.13965c-1.03626,1.35563 -9.50231,8.87353 -17.2289,8.36605c-2.4377,-0.16011 -11.182,-1.76451 -15.09305,-7.78365c-1.80795,-2.78245 -0.65333,-8.9211 -1.20331,-12.54809c-0.25507,-1.68209 -2.86329,-9.93617 -6.52344,-10.70515c-2.42091,-0.50862 -7.11427,-0.36942 -9.48135,1.37091c-3.03987,2.23497 -3.49679,6.48378 -3.67184,8.74501c-0.71328,9.21421 3.26711,23.44195 3.31601,23.74934c1.8633,11.71403 0.35476,21.9319 -0.11259,23.97596c-0.48059,2.10197 -2.56616,11.47535 -7.94015,15.56365c-5.84426,4.44607 -15.04855,3.52343 -16.53493,3.15413c-5.59521,-1.39018 -10.67865,-8.10899 -10.85378,-8.40411c-4.34281,-7.31822 -4.07578,-23.57814 -3.14861,-28.09143c1.5487,-7.53878 3.84985,-12.65483 4.53984,-18.481c1.33127,-11.24109 -1.22602,-18.60849 -2.2279,-20.24547c-2.31584,-3.78387 -6.14536,-9.74077 -9.9077,-10.174c-1.05912,-0.12196 -5.23609,-0.54911 -7.92644,2.16528c-0.95328,0.96179 -2.44489,8.67232 -4.96782,13.94452c-2.4747,5.17142 -5.97825,7.90545 -7.22271,8.91482c-8.31483,6.74405 -17.71366,1.71466 -20.61014,-0.49476c-1.30739,-0.99727 -4.9128,-5.47716 -6.57655,-10.71443c-1.74809,-5.50276 -1.55339,-11.79146 -2.83939,-13.61974c-2.31664,-3.29352 -7.48785,-2.07094 -8.71869,-1.41703c-0.62472,0.33191 -5.41345,1.73915 -7.61796,5.85558c-1.54438,2.88378 -1.69929,7.2032 -2.07245,10.08312c-0.13644,1.05295 -0.30204,1.91347 -0.5754,2.44105c-1.01184,1.95283 -1.87616,6.54257 -5.79469,8.86238c-3.03526,1.79691 -8.9697,1.69853 -11.47934,1.33043c-0.90976,-0.13343 -5.10431,-0.66314 -7.89655,-3.75788c-4.59227,-5.08976 -8.23293,-13.70787 -8.23293,-13.70787" fill="none" stroke="#000000" stroke-width="6" stroke-linecap="round"/><path d="M147.50093,118.56316c0,-1.10457 0.89543,-2 2,-2c1.10457,0 2,0.89543 2,2c0,1.10457 -0.89543,2 -2,2c-1.10457,0 -2,-0.89543 -2,-2z" fill="#000000" stroke="#000000" stroke-width="0.5" stroke-linecap="butt"/><path d="M257.07948,164.90476c0,-1.10457 0.89543,-2 2,-2c1.10457,0 2,0.89543 2,2c0,1.10457 -0.89543,2 -2,2c-1.10457,0 -2,-0.89543 -2,-2z" fill="#000000" stroke="#000000" stroke-width="0.5" stroke-linecap="butt"/><path d="M267.28578,197.24733c0,0 -3.91905,-1.08434 -6.09331,-4.46176c-1.25939,-1.9563 -1.93654,-4.51684 -2.45908,-6.2006c-1.47023,-4.7374 -0.13665,-15.40479 -0.13665,-15.40479" fill="none" stroke="#000000" stroke-width="4" stroke-linecap="round"/><path d="M156.59223,140.93093c0,0 -1.94983,-0.3702 -3.39721,-1.04731c-0.81345,-0.38054 -2.60478,-1.38003 -3.92468,-3.07161c-1.45358,-1.8629 -2.41448,-4.4597 -2.68309,-5.57315c-0.71352,-2.95773 1.2434,-7.93834 1.2434,-7.93834" fill="none" stroke="#000000" stroke-width="4" stroke-linecap="round"/><path d="M153.80221,94.3884c0,0 -2.11398,-3.87995 -2.77876,-7.6483c-0.63361,-3.59168 0.16374,-7.0362 0.81261,-8.74336c1.67765,-4.41386 4.96615,-5.60835 4.96615,-5.60835" fill="none" stroke="#000000" stroke-width="3" stroke-linecap="round"/><path d="M318.3428,68.15426c0,0 5.28339,2.1844 8.8999,6.18687c2.76287,3.05772 4.03244,7.90516 4.3245,9.31842c0.96292,4.65972 0.0256,9.24471 0.0256,9.24471" fill="none" stroke="#000000" stroke-width="3.5" stroke-linecap="round"/><path d="M328.8428,125.7216c0,0 1.5051,1.78666 2.59641,5.68306c0.90283,3.22347 1.44356,8.44314 1.31879,10.36023c-0.37014,5.68733 -3.1652,8.70671 -3.1652,8.70671" fill="none" stroke="#000000" stroke-width="3.5" stroke-linecap="round"/><path d="M216.8428,59.809c0,0 7.62495,-0.64631 15.46083,-0.98131c6.3712,-0.27238 12.88183,-0.25423 15.54667,-0.19957c2.69208,0.05522 11.77488,0.1146 19.32559,0.61715c6.42219,0.42743 11.6669,1.31374 11.6669,1.31374" fill="none" stroke="#000000" stroke-width="3.5" stroke-linecap="round"/></g></g></svg>