<svg version="1.1" xmlns="http://www.w3.org/2000/svg" xmlns:xlink="http://www.w3.org/1999/xlink" width="479.5" height="120" viewBox="0,0,479.5,120"><g transform="translate(-0.10001,-242.10001)"><g data-paper-data="{&quot;isPaintingLayer&quot;:true}" fill-rule="nonzero" stroke="none" stroke-width="0" stroke-linecap="butt" stroke-linejoin="miter" stroke-miterlimit="10" stroke-dasharray="" stroke-dashoffset="0" style="mix-blend-mode: normal"><path d="M0.10001,313.10001v-33h479.5v33z" fill="#5e4500"/><path d="M0.10001,362.10001v-53h479.5v53c0,0 -361.58716,0 -432.88871,0c-23.39679,0 -46.61128,0 -46.61128,0z" fill="#3f2f00"/><path d="M0.10001,280.90001v-23c0,0 58.84913,0 104.4179,0c86.36604,0 375.0821,0 375.0821,0v23z" fill="#00bd75"/><path d="M88.97232,261.80001c0,-1.24583 -0.96649,-4.12774 -5,-4.09167c-5.76432,0.05155 101.85011,-0.02162 97.56667,0c-3.68135,0.01858 -4.4,2.84584 -4.4,4.09167c0,1.04733 -1.13399,2.89166 -2.62108,2.89166c-7.46434,0 -67.8498,0 -82.4,0c-2.01024,0 -3.14559,-1.84434 -3.14559,-2.89166z" fill="#62cb6c"/><path d="M266.56616,261.71668c0,-1.24583 -0.96649,-4.12774 -5,-4.09167c-5.76432,0.05155 77.82609,-0.02162 73.54265,0c-3.68135,0.01858 -4.4,2.84584 -4.4,4.09167c0,1.04733 -1.134,2.89166 -2.62108,2.89166c-7.46434,0 -43.82577,0 -58.37598,0c-2.01024,0 -3.14559,-1.84434 -3.14559,-2.89166z" fill="#62cb6c"/><path d="M339.31616,261.80001c0,-1.24583 -0.96649,-4.12774 -5,-4.09167c-5.76432,0.05155 28.27654,-0.02162 23.9931,0c-3.68135,0.01858 -4.4,2.84584 -4.4,4.09167c0,1.04733 -1.134,2.89166 -2.62108,2.89166c-7.46434,0 5.72378,0 -8.82643,0c-2.01024,0 -3.14559,-1.84434 -3.14559,-2.89166z" fill="#62cb6c"/><path d="M229.23896,287.35834c-14.55021,0 -74.93567,0 -82.4,0c-1.48708,0 -2.62108,-1.84434 -2.62108,-2.89166c0,-1.24583 -0.71865,-4.07309 -4.4,-4.09167c-4.28344,-0.02162 103.33099,0.05155 97.56667,0c-4.03351,-0.03607 -5,2.84584 -5,4.09167c0,1.04733 -1.13535,2.89166 -3.14559,2.89166z" data-paper-data="{&quot;index&quot;:null}" fill="#00bd75"/><path d="M422.51599,287.27501c-14.5502,0 -50.91164,0 -58.37597,0c-1.48708,0 -2.62108,-1.84434 -2.62108,-2.89166c0,-1.24583 -0.71864,-4.07309 -4.4,-4.09167c-4.28344,-0.02162 79.30696,0.05155 73.54264,0c-4.03351,-0.03607 -5,2.84584 -5,4.09167c0,1.04733 -1.13534,2.89166 -3.14559,2.89166z" data-paper-data="{&quot;index&quot;:null}" fill="#00bd75"/><path d="M349.76599,287.35834c-14.5502,0 -1.36209,0 -8.82642,0c-1.48708,0 -2.62108,-1.84434 -2.62108,-2.89166c0,-1.24583 -0.71865,-4.07309 -4.4,-4.09167c-4.28344,-0.02162 29.75741,0.05155 23.99309,0c-4.03351,-0.03607 -5,2.84584 -5,4.09167c0,1.04733 -1.13534,2.89166 -3.14559,2.89166z" data-paper-data="{&quot;index&quot;:null}" fill="#00bd75"/><path d="M126.13085,314.88086c-14.55021,0 -74.93566,0 -82.4,0c-1.48709,0 -2.62108,-1.84434 -2.62108,-2.89166c0,-1.24583 -0.71865,-4.07309 -4.4,-4.09167c-4.28344,-0.02162 103.33099,0.05155 97.56667,0c-4.03351,-0.03607 -5,2.84584 -5,4.09167c0,1.04733 -1.13535,2.89166 -3.14559,2.89166z" data-paper-data="{&quot;index&quot;:null}" fill="#5e4500"/><path d="M452.45217,315.37636c-14.55021,0 -74.93567,0 -82.4,0c-1.48708,0 -2.62108,-1.84434 -2.62108,-2.89166c0,-1.24583 -0.71865,-4.07309 -4.4,-4.09167c-4.28344,-0.02162 103.33099,0.05155 97.56667,0c-4.03351,-0.03607 -5,2.84584 -5,4.09167c0,1.04733 -1.13535,2.89166 -3.14559,2.89166z" data-paper-data="{&quot;index&quot;:null}" fill="#5e4500"/><path d="M297.70893,315.54753c-14.55021,0 -1.36209,0 -8.82643,0c-1.48708,0 -2.62108,-1.84434 -2.62108,-2.89166c0,-1.24583 -0.71865,-4.07309 -4.4,-4.09167c-4.28344,-0.02162 29.75742,0.05155 23.9931,0c-4.03351,-0.03607 -5,2.84584 -5,4.09167c0,1.04733 -1.13535,2.89166 -3.14559,2.89166z" data-paper-data="{&quot;index&quot;:null}" fill="#5e4500"/><path d="M0.10001,260.10001v-18h479.5v18z" fill="#62cb6c"/></g></g></svg>